<svg xmlns="http://www.w3.org/2000/svg" width="1200" height="400" viewBox="0 0 1200 400">
  <rect width="1200" height="400" fill="#0a0a0a"/>

  <svg x="420" y="55" width="360" height="170" viewBox="0 150 380 100" preserveAspectRatio="xMidYMid meet">
    <g fill="#ffffff">
      <g transform="translate(4.8, 221.1)"><path d="M 8.125 0 L 8.125 -62.469 L 20.469 -62.469 L 20.469 -36.969 L 21.844 -36.969 L 42.688 -62.469 L 55.344 -62.469 L 55.344 -61.406 L 32.344 -32.984 L 57.734 -1.062 L 57.734 0 L 43.766 0 L 21.844 -26.969 L 20.469 -26.969 L 20.469 0 Z"/></g>
      <g transform="translate(62.5, 221.1)"><path d="M 12.688 -52.781 C 10.551 -52.781 8.812 -53.426 7.469 -54.719 C 6.133 -56.008 5.469 -57.680 5.469 -59.734 C 5.469 -61.766 6.133 -63.426 7.469 -64.719 C 8.812 -66.008 10.551 -66.656 12.688 -66.656 C 14.113 -66.656 15.379 -66.359 16.484 -65.766 C 17.598 -65.172 18.461 -64.352 19.078 -63.312 C 19.691 -62.270 20 -61.078 20 -59.734 C 20 -58.398 19.691 -57.203 19.078 -56.141 C 18.461 -55.086 17.598 -54.266 16.484 -53.672 C 15.379 -53.078 14.113 -52.781 12.688 -52.781 Z M 6.797 0 L 6.797 -47.141 L 18.625 -47.141 L 18.625 0 Z"/></g>
      <g transform="translate(87.9, 221.1)"><path d="M 6.797 19.094 L 6.797 -47.141 L 18.625 -47.141 L 18.625 -40.984 L 19.531 -40.812 C 20.926 -43.207 22.789 -45.008 25.125 -46.219 C 27.457 -47.426 30.191 -48.031 33.328 -48.031 C 37.117 -48.031 40.430 -47.129 43.266 -45.328 C 46.098 -43.535 48.305 -40.812 49.891 -37.156 C 51.473 -33.500 52.266 -28.961 52.266 -23.547 C 52.266 -18.160 51.430 -13.645 49.766 -10 C 48.098 -6.352 45.781 -3.625 42.812 -1.812 C 39.852 -0.008 36.438 0.891 32.562 0.891 C 29.625 0.891 27.086 0.398 24.953 -0.578 C 22.816 -1.555 21.008 -3.086 19.531 -5.172 L 18.625 -5 L 18.625 19.094 Z M 29.266 -9.141 C 32.805 -9.141 35.488 -10.289 37.312 -12.594 C 39.133 -14.906 40.047 -18.555 40.047 -23.547 C 40.047 -28.535 39.133 -32.188 37.312 -34.500 C 35.488 -36.820 32.805 -37.984 29.266 -37.984 C 25.961 -37.984 23.344 -36.785 21.406 -34.391 C 19.469 -32.004 18.500 -28.391 18.500 -23.547 C 18.500 -18.734 19.469 -15.129 21.406 -12.734 C 23.344 -10.336 25.961 -9.141 29.266 -9.141 Z"/></g>
      <g transform="translate(144.4, 221.1)"><path d="M 21.578 0.891 C 16.273 0.891 12.363 -0.551 9.844 -3.438 C 7.320 -6.332 6.062 -10.484 6.062 -15.891 L 6.062 -47.141 L 17.906 -47.141 L 17.906 -17.391 C 17.906 -14.516 18.523 -12.414 19.766 -11.094 C 21.004 -9.770 22.922 -9.109 25.516 -9.109 C 28.785 -9.109 31.332 -10.180 33.156 -12.328 C 34.977 -14.473 35.891 -17.859 35.891 -22.484 L 35.891 -47.141 L 47.734 -47.141 L 47.734 0 L 36.359 0 L 36.359 -6.922 L 35.469 -7.141 C 33.957 -4.430 32.113 -2.414 29.938 -1.094 C 27.758 0.227 24.973 0.891 21.578 0.891 Z"/></g>
    </g>
    <g fill="#ff3131">
      <g transform="translate(198.9, 221.1)"><path d="M 34.141 0.891 C 28.391 0.891 23.316 -0.301 18.922 -2.688 C 14.535 -5.082 11.102 -8.680 8.625 -13.484 C 6.156 -18.285 4.922 -24.203 4.922 -31.234 C 4.922 -38.273 6.156 -44.191 8.625 -48.984 C 11.102 -53.785 14.535 -57.383 18.922 -59.781 C 23.316 -62.176 28.391 -63.375 34.141 -63.375 C 40.148 -63.375 45.254 -62.195 49.453 -59.844 C 53.660 -57.500 56.660 -53.914 58.453 -49.094 L 49.438 -43.594 L 48.375 -43.625 C 47.031 -46.875 45.211 -49.203 42.922 -50.609 C 40.629 -52.023 37.703 -52.734 34.141 -52.734 C 28.953 -52.734 24.906 -51.016 22 -47.578 C 19.094 -44.148 17.641 -38.703 17.641 -31.234 C 17.641 -23.797 19.094 -18.359 22 -14.922 C 24.906 -11.492 28.953 -9.781 34.141 -9.781 C 42.266 -9.781 47.238 -13.727 49.062 -21.625 L 50.125 -21.625 L 59.234 -16.875 C 57.516 -10.945 54.586 -6.504 50.453 -3.547 C 46.328 -0.586 40.891 0.891 34.141 0.891 Z"/></g>
      <g transform="translate(260.2, 221.1)"><path d="M 27.391 0.891 C 22.773 0.891 18.723 -0.051 15.234 -1.938 C 11.742 -3.832 9.035 -6.609 7.109 -10.266 C 5.191 -13.930 4.234 -18.359 4.234 -23.547 C 4.234 -28.734 5.191 -33.160 7.109 -36.828 C 9.035 -40.504 11.742 -43.289 15.234 -45.188 C 18.723 -47.082 22.773 -48.031 27.391 -48.031 C 32.004 -48.031 36.055 -47.082 39.547 -45.188 C 43.035 -43.289 45.750 -40.504 47.688 -36.828 C 49.625 -33.160 50.594 -28.734 50.594 -23.547 C 50.594 -18.359 49.625 -13.930 47.688 -10.266 C 45.750 -6.609 43.035 -3.832 39.547 -1.938 C 36.055 -0.051 32.004 0.891 27.391 0.891 Z M 27.391 -9.141 C 34.711 -9.141 38.375 -13.941 38.375 -23.547 C 38.375 -28.535 37.430 -32.188 35.547 -34.500 C 33.672 -36.820 30.953 -37.984 27.391 -37.984 C 20.066 -37.984 16.406 -33.172 16.406 -23.547 C 16.406 -13.941 20.066 -9.141 27.391 -9.141 Z"/></g>
      <g transform="translate(314.9, 221.1)"><path d="M 6.797 0 L 6.797 -47.141 L 18.156 -47.141 L 18.156 -40.219 L 19.062 -40 C 21.988 -45.352 26.742 -48.031 33.328 -48.031 C 38.773 -48.031 42.770 -46.547 45.312 -43.578 C 47.863 -40.617 49.141 -36.305 49.141 -30.641 L 49.141 0 L 37.312 0 L 37.312 -29.188 C 37.312 -32.320 36.680 -34.578 35.422 -35.953 C 34.172 -37.336 32.164 -38.031 29.406 -38.031 C 26.008 -38.031 23.363 -36.930 21.469 -34.734 C 19.570 -32.547 18.625 -29.102 18.625 -24.406 L 18.625 0 Z"/></g>
    </g>
  </svg>

  <text x="600" y="280" font-family="-apple-system, BlinkMacSystemFont, 'Segoe UI', sans-serif" font-size="20" font-weight="600" fill="#ffffff" text-anchor="middle" letter-spacing="3">THE LATIN AMERICAN CYBERSECURITY SUMMIT</text>
  <text x="600" y="320" font-family="-apple-system, BlinkMacSystemFont, 'Segoe UI', sans-serif" font-size="16" font-style="italic" fill="#888888" text-anchor="middle">Decrypting the Future. Honoring the Past.</text>
</svg>
